<svg id="svg" version="1.1" width="437" height="365" xmlns="http://www.w3.org/2000/svg"><path d="M206 14.223 C 204.354 17.367,204.618 19.709,207.500 22.591 C 208.875 23.966,210.000 25.244,210.000 25.430 C 210.000 25.617,207.412 26.087,204.250 26.476 C 196.199 27.464,183.032 30.673,174.620 33.695 C 112.454 56.032,73.276 118.729,81.438 182.816 C 88.411 237.566,122.884 281.135,174.039 299.851 C 198.619 308.844,231.581 310.511,256.500 304.020 C 315.403 288.677,358.007 238.394,362.852 178.500 C 363.958 164.829,362.748 161.053,357.250 161.015 C 352.662 160.984,351.348 163.858,350.582 175.604 C 348.510 207.359,335.718 235.464,313.066 258.030 C 277.543 293.418,227.480 305.007,179.670 288.910 C 148.711 278.487,120.410 253.354,106.015 223.500 C 82.472 174.674,91.232 117.429,128.210 78.460 C 145.506 60.233,166.477 47.861,190.149 41.920 C 198.922 39.718,209.753 38.086,210.518 38.852 C 210.804 39.138,209.680 40.613,208.019 42.130 C 204.699 45.163,204.080 48.937,206.506 51.363 C 210.130 54.987,211.665 54.457,223.981 45.328 C 236.171 36.293,239.044 32.813,237.178 29.341 C 235.563 26.337,213.710 12.000,210.746 12.000 C 209.159 12.000,207.495 12.883,206.557 14.223 M263.911 34.871 C 262.241 36.224,261.600 37.781,261.600 40.488 C 261.600 49.956,274.999 50.163,275.807 40.708 C 276.376 34.051,269.244 30.552,263.911 34.871 M295.229 49.669 C 293.260 50.462,290.941 55.666,291.656 57.687 C 294.359 65.320,303.128 66.054,305.857 58.875 C 306.984 55.912,305.078 50.628,302.529 49.650 C 300.595 48.908,297.099 48.917,295.229 49.669 M319.057 73.943 C 316.022 76.978,316.303 82.306,319.635 84.927 C 322.767 87.391,324.153 87.489,327.966 85.517 C 334.434 82.173,332.149 72.829,324.708 72.193 C 322.126 71.972,320.535 72.465,319.057 73.943 M268.000 88.557 C 262.775 90.445,253.775 93.632,248.000 95.638 C 232.569 100.998,232.193 101.554,241.000 106.000 C 244.300 107.666,246.996 109.585,246.991 110.264 C 246.981 111.640,240.374 120.332,232.000 129.984 C 225.611 137.348,207.345 153.276,199.153 158.626 C 196.044 160.656,191.475 163.658,189.000 165.295 C 182.522 169.580,166.405 177.533,156.246 181.456 C 150.997 183.483,147.371 185.466,147.177 186.416 C 146.966 187.448,147.562 188.000,148.888 188.000 C 155.073 188.000,184.812 179.223,201.278 172.538 C 230.465 160.688,253.922 145.714,268.897 129.371 L 274.974 122.739 281.883 126.369 C 290.051 130.661,291.000 130.784,291.000 127.553 C 291.000 125.461,285.704 102.755,282.057 89.212 C 280.675 84.081,280.416 84.069,268.000 88.557 M337.646 100.452 C 334.466 103.399,334.269 106.801,337.073 110.365 C 341.315 115.759,350.000 112.328,350.000 105.258 C 350.000 103.086,349.203 101.519,347.365 100.073 C 343.888 97.338,340.880 97.455,337.646 100.452 M348.695 128.111 C 344.079 130.796,344.642 138.604,349.615 140.870 C 353.086 142.452,354.351 142.298,357.365 139.927 C 362.537 135.860,359.697 126.959,353.250 127.030 C 351.738 127.047,349.688 127.533,348.695 128.111 M45.000 154.988 C 43.625 155.445,39.462 156.601,35.750 157.558 L 29.000 159.297 29.000 163.546 L 29.000 167.795 35.250 168.838 C 38.688 169.412,44.087 170.185,47.250 170.556 L 53.000 171.230 53.000 168.201 L 53.000 165.171 45.513 164.469 C 41.395 164.083,38.245 163.412,38.514 162.977 C 38.783 162.543,41.364 161.868,44.251 161.479 C 51.102 160.553,53.000 159.466,53.000 156.465 C 53.000 154.423,52.528 154.014,50.250 154.079 C 48.737 154.122,46.375 154.531,45.000 154.988 M394.020 159.284 C 390.687 160.971,389.033 164.548,389.015 170.107 L 389.000 174.714 400.043 175.614 C 407.001 176.181,411.440 176.160,412.043 175.557 C 412.569 175.031,413.000 172.194,413.000 169.252 C 413.000 164.824,412.567 163.504,410.486 161.574 C 406.634 158.005,398.723 156.905,394.020 159.284 M406.800 166.200 C 409.181 168.581,407.888 169.226,401.538 168.822 C 394.778 168.391,393.363 167.840,394.459 166.067 C 395.361 164.607,405.314 164.714,406.800 166.200 M52.973 180.340 C 52.713 180.589,48.000 181.548,42.500 182.472 C 37.000 183.396,32.121 184.519,31.657 184.968 C 31.194 185.418,31.287 186.668,31.865 187.748 C 32.817 189.526,33.459 189.625,38.708 188.802 C 48.634 187.246,55.322 185.533,55.682 184.455 C 56.076 183.273,53.692 179.652,52.973 180.340 M387.114 185.787 C 386.610 186.729,385.878 189.632,385.487 192.238 C 384.946 195.845,385.102 197.068,386.138 197.360 C 392.447 199.135,407.226 202.108,407.646 201.687 C 408.387 200.946,409.947 193.955,409.976 191.250 C 410.012 187.870,406.680 188.361,405.330 191.935 C 404.461 194.239,403.768 194.752,402.111 194.319 C 400.579 193.918,400.000 192.976,400.000 190.883 C 400.000 188.726,399.526 188.000,398.117 188.000 C 397.074 188.000,396.000 188.893,395.710 190.000 C 395.397 191.197,394.346 192.000,393.094 192.000 C 391.380 192.000,391.000 191.384,391.000 188.607 C 391.000 184.787,388.586 183.036,387.114 185.787 M46.661 200.627 C 35.990 204.104,35.833 204.199,36.493 206.827 C 37.396 210.428,37.350 210.408,42.154 209.189 C 49.191 207.403,50.522 209.977,43.750 212.277 C 40.190 213.486,39.545 214.105,39.779 216.089 C 39.932 217.392,40.412 218.812,40.846 219.246 C 41.279 219.679,46.329 218.500,52.067 216.626 C 62.678 213.161,64.428 211.683,62.125 208.133 C 61.399 207.014,60.569 206.987,57.552 207.983 C 55.525 208.652,53.616 208.949,53.309 208.643 C 52.070 207.404,54.050 205.148,56.932 204.515 C 60.241 203.788,60.929 201.603,58.750 198.739 C 57.608 197.238,56.568 197.400,46.661 200.627 M381.296 207.294 C 380.874 207.957,379.525 210.948,378.299 213.939 C 376.653 217.954,376.354 219.722,377.157 220.689 C 378.611 222.441,380.652 222.349,381.362 220.500 C 382.172 218.389,383.758 218.601,391.732 221.890 C 399.215 224.975,400.791 224.825,401.225 220.983 C 401.471 218.806,400.668 218.224,393.500 215.387 C 386.717 212.701,385.453 211.835,385.192 209.694 C 384.849 206.884,382.484 205.427,381.296 207.294 M224.000 216.311 C 224.000 218.356,223.450 218.930,221.250 219.184 C 218.777 219.468,218.468 219.939,218.188 223.852 C 217.813 229.068,219.844 231.944,223.419 231.260 C 225.101 230.939,225.964 229.928,226.394 227.779 C 227.487 222.313,227.067 216.300,225.500 215.000 C 224.233 213.949,224.000 214.152,224.000 216.311 M301.111 215.792 C 300.024 217.823,300.851 230.000,302.076 230.000 C 302.515 230.000,302.850 228.198,302.819 225.995 C 302.789 223.792,303.256 221.396,303.858 220.671 C 304.657 219.708,304.621 219.001,303.726 218.051 C 302.757 217.023,302.762 216.654,303.750 216.292 C 305.478 215.658,305.323 214.000,303.535 214.000 C 302.730 214.000,301.639 214.807,301.111 215.792 M132.743 215.590 C 132.334 215.999,132.000 219.633,132.000 223.667 L 132.000 231.000 135.965 231.000 C 140.626 231.000,142.820 228.401,141.011 225.021 C 140.428 223.932,140.192 222.019,140.486 220.771 C 140.780 219.522,140.656 217.944,140.210 217.265 C 139.232 215.773,133.783 214.550,132.743 215.590 M290.000 222.441 C 290.000 226.534,290.450 230.160,291.000 230.500 C 291.635 230.892,292.000 228.177,292.000 223.059 C 292.000 218.353,291.584 215.000,291.000 215.000 C 290.423 215.000,290.000 218.147,290.000 222.441 M212.000 221.918 C 212.000 228.202,212.649 231.000,214.107 231.000 C 214.598 231.000,215.000 227.625,215.000 223.500 C 215.000 217.500,214.700 216.000,213.500 216.000 C 212.336 216.000,212.000 217.324,212.000 221.918 M265.770 217.081 C 265.053 219.082,266.079 229.310,267.110 230.433 C 268.580 232.035,269.006 230.506,268.033 227.116 C 267.483 225.196,267.463 222.911,267.986 221.536 C 268.586 219.958,268.454 218.636,267.576 217.434 C 266.528 216.001,266.182 215.934,265.770 217.081 M138.559 218.096 C 138.932 218.699,138.552 219.877,137.714 220.714 C 135.892 222.537,134.000 221.634,134.000 218.941 C 134.000 216.817,137.382 216.190,138.559 218.096 M170.219 219.043 C 168.239 219.838,167.988 220.534,168.313 224.322 C 168.787 229.832,169.524 231.000,172.528 231.000 C 174.330 231.000,174.782 231.405,174.321 232.607 C 173.851 233.830,172.844 234.080,170.102 233.652 C 166.777 233.135,166.650 233.203,168.441 234.546 C 171.855 237.104,176.000 236.002,176.000 232.538 C 176.000 230.863,175.171 230.047,172.750 229.339 L 169.500 228.389 172.500 226.938 C 174.922 225.766,175.560 224.764,175.810 221.743 C 176.146 217.690,174.985 217.129,170.219 219.043 M197.219 219.043 C 195.239 219.838,194.988 220.534,195.313 224.322 C 195.787 229.832,196.524 231.000,199.528 231.000 C 201.330 231.000,201.782 231.405,201.321 232.607 C 200.856 233.817,199.857 234.076,197.271 233.657 C 194.352 233.183,194.018 233.317,195.041 234.550 C 196.310 236.079,198.780 236.406,201.418 235.393 C 203.138 234.733,203.629 230.079,202.000 229.875 C 201.450 229.806,200.550 229.637,200.000 229.500 C 199.450 229.363,198.550 229.194,198.000 229.125 C 196.022 228.878,197.059 227.416,200.000 226.306 C 202.565 225.338,203.000 224.654,203.000 221.587 C 203.000 217.732,201.799 217.204,197.219 219.043 M144.000 224.441 C 144.000 227.434,144.450 230.160,145.000 230.500 C 145.600 230.871,146.000 229.585,146.000 227.282 C 146.000 225.171,146.701 222.445,147.557 221.223 C 149.044 219.099,148.999 219.000,146.557 219.000 C 144.128 219.000,144.000 219.272,144.000 224.441 M152.000 225.059 C 152.000 228.844,152.375 230.886,153.000 230.500 C 153.550 230.160,154.000 227.434,154.000 224.441 C 154.000 221.448,153.550 219.000,153.000 219.000 C 152.443 219.000,152.000 221.686,152.000 225.059 M158.000 225.200 C 158.000 232.292,159.689 232.145,160.187 225.009 C 160.419 221.679,160.953 220.431,162.250 220.185 C 163.747 219.901,164.000 220.659,164.000 225.427 C 164.000 228.492,164.450 231.000,165.000 231.000 C 166.085 231.000,166.381 223.156,165.393 220.582 C 165.005 219.569,163.565 219.000,161.393 219.000 L 158.000 219.000 158.000 225.200 M179.113 219.000 C 178.459 220.620,178.358 228.962,178.980 229.968 C 180.198 231.938,180.617 229.082,179.930 223.500 C 179.591 220.750,179.223 218.725,179.113 219.000 M184.000 224.381 C 184.000 227.406,184.450 230.160,185.000 230.500 C 185.607 230.875,186.006 229.424,186.015 226.809 C 186.035 221.214,187.244 219.128,189.419 220.932 C 190.445 221.785,190.851 223.354,190.590 225.462 C 190.370 227.237,190.605 229.321,191.113 230.094 C 191.718 231.016,191.944 229.433,191.768 225.500 L 191.500 219.500 187.750 219.190 L 184.000 218.879 184.000 224.381 M229.607 220.582 C 227.600 225.813,230.062 231.454,234.056 230.773 L 236.500 230.357 233.690 229.180 C 230.296 227.760,231.024 226.000,235.004 226.000 C 237.154 226.000,238.241 226.702,239.262 228.750 C 240.037 230.303,241.257 231.330,242.067 231.109 C 242.855 230.893,244.287 230.753,245.250 230.796 C 246.638 230.859,247.000 230.049,247.000 226.872 C 247.000 224.670,246.534 221.998,245.965 220.934 C 244.882 218.910,241.000 218.226,241.000 220.059 C 241.000 220.641,241.399 220.871,241.887 220.570 C 242.374 220.269,243.325 220.687,243.999 221.499 C 244.998 222.702,244.880 223.085,243.363 223.561 C 242.338 223.883,240.742 224.548,239.817 225.040 C 238.456 225.762,237.914 225.270,236.989 222.467 C 236.044 219.603,235.355 219.000,233.029 219.000 C 231.385 219.000,229.962 219.658,229.607 220.582 M249.602 220.594 C 249.214 221.606,250.059 223.186,251.913 224.919 C 254.976 227.780,254.851 229.403,251.500 230.310 C 250.400 230.607,251.075 230.772,253.000 230.675 C 257.561 230.447,258.430 226.983,254.561 224.448 C 251.704 222.576,251.219 221.000,253.500 221.000 C 254.325 221.000,255.000 220.550,255.000 220.000 C 255.000 218.351,250.263 218.873,249.602 220.594 M272.667 219.667 C 271.341 220.993,272.001 228.858,273.569 230.427 C 277.214 234.071,281.339 227.646,278.992 221.981 C 277.813 219.133,274.435 217.898,272.667 219.667 M296.000 225.000 C 296.000 228.824,296.375 230.886,297.000 230.500 C 297.550 230.160,298.000 227.685,298.000 225.000 C 298.000 222.315,297.550 219.840,297.000 219.500 C 296.375 219.114,296.000 221.176,296.000 225.000 M307.076 220.858 C 305.961 222.942,306.563 227.769,308.182 229.719 C 309.485 231.290,313.000 231.416,313.000 229.893 C 313.000 229.284,312.358 229.032,311.573 229.334 C 310.012 229.933,307.615 227.719,308.675 226.658 C 309.037 226.296,310.357 226.000,311.608 226.000 C 314.567 226.000,315.243 224.769,314.032 221.584 C 312.843 218.456,308.598 218.013,307.076 220.858 M173.500 222.570 C 173.500 223.616,172.713 224.624,171.750 224.810 C 169.990 225.149,169.216 222.117,170.688 220.646 C 171.869 219.464,173.500 220.580,173.500 222.570 M200.500 222.570 C 200.500 223.616,199.713 224.624,198.750 224.810 C 196.990 225.149,196.216 222.117,197.688 220.646 C 198.869 219.464,200.500 220.580,200.500 222.570 M312.554 221.087 C 313.526 222.660,311.425 224.377,309.455 223.621 C 308.091 223.098,308.007 222.697,309.010 221.488 C 310.473 219.725,311.631 219.594,312.554 221.087 M223.807 225.250 C 223.445 230.259,220.709 231.325,220.175 226.666 C 219.750 222.954,220.561 221.000,222.526 221.000 C 223.777 221.000,224.050 221.904,223.807 225.250 M235.569 222.112 C 236.545 223.690,233.838 225.110,232.295 223.829 C 231.595 223.249,231.269 222.374,231.570 221.887 C 232.337 220.645,234.746 220.781,235.569 222.112 M277.801 224.593 C 278.163 228.292,275.903 230.793,274.129 228.655 C 273.466 227.856,273.258 225.959,273.631 224.096 C 274.469 219.903,277.376 220.250,277.801 224.593 M138.918 224.847 C 140.079 227.016,138.589 229.000,135.800 229.000 C 134.581 229.000,134.000 228.247,134.000 226.667 C 134.000 222.672,137.134 221.512,138.918 224.847 M244.426 228.333 C 244.074 229.250,243.159 230.000,242.393 230.000 C 240.662 230.000,240.540 226.335,242.250 225.708 C 244.052 225.048,245.169 226.395,244.426 228.333 M62.500 227.231 C 60.300 227.770,56.390 228.838,53.812 229.605 C 51.234 230.372,48.421 231.000,47.562 231.000 C 46.703 231.000,46.000 231.638,46.000 232.418 C 46.000 235.529,47.300 237.000,50.048 237.000 C 53.617 237.000,54.668 238.604,52.598 240.892 C 50.659 243.034,50.641 243.941,52.484 246.376 C 53.828 248.151,54.395 247.855,62.952 240.929 C 67.929 236.901,72.000 233.222,72.000 232.753 C 72.000 230.862,68.868 226.008,67.724 226.126 C 67.051 226.196,64.700 226.693,62.500 227.231 M370.133 232.267 C 367.577 234.823,369.255 236.618,378.974 241.728 L 388.918 246.955 390.428 244.800 C 392.226 242.233,392.572 242.530,379.883 235.743 C 373.464 232.309,370.977 231.423,370.133 232.267 M62.441 234.468 C 60.236 236.136,58.000 236.446,58.000 235.083 C 58.000 233.989,59.775 233.187,62.441 233.079 C 64.363 233.001,64.363 233.015,62.441 234.468 M360.037 249.948 L 357.938 252.895 361.469 256.108 C 366.373 260.570,365.878 261.599,360.379 258.376 L 355.759 255.669 353.902 258.084 C 352.880 259.413,352.064 261.175,352.088 262.000 C 352.112 262.825,355.968 266.596,360.657 270.381 C 369.179 277.259,369.183 277.261,371.180 275.265 C 373.177 273.268,373.176 273.266,369.839 270.039 C 367.542 267.818,367.182 267.152,368.684 267.905 C 371.916 269.525,372.920 269.269,374.180 266.504 C 375.120 264.442,375.002 263.660,373.504 262.004 C 371.096 259.344,372.352 259.461,376.122 262.248 C 379.113 264.460,379.187 264.465,380.582 262.557 C 381.362 261.491,381.998 260.141,381.996 259.559 C 381.992 258.471,364.686 247.000,363.049 247.000 C 362.547 247.000,361.192 248.326,360.037 249.948 M81.175 262.035 C 72.422 267.371,69.720 273.831,73.976 279.242 C 76.618 282.601,79.738 283.358,81.026 280.952 C 81.813 279.480,81.598 278.855,80.013 278.007 C 76.937 276.361,77.592 273.601,82.003 269.616 C 86.494 265.559,89.413 265.035,91.000 268.000 C 92.242 270.320,94.816 270.643,95.608 268.578 C 96.245 266.920,94.369 263.034,92.087 261.282 C 89.685 259.438,84.891 259.769,81.175 262.035 M341.200 271.200 C 340.540 271.860,340.000 272.883,340.000 273.473 C 340.000 274.064,343.574 278.100,347.943 282.443 C 354.753 289.214,356.108 290.155,357.443 289.047 C 358.299 288.337,359.000 287.237,359.000 286.604 C 359.000 285.494,344.002 270.000,342.928 270.000 C 342.638 270.000,341.860 270.540,341.200 271.200 M101.500 278.164 C 92.234 283.276,88.419 292.888,93.370 298.644 C 98.037 304.069,105.675 301.736,111.063 293.240 C 114.393 287.989,114.738 284.467,112.228 281.367 C 108.954 277.325,105.104 276.176,101.500 278.164 M108.000 284.903 C 108.000 287.830,99.725 296.492,97.679 295.707 C 95.165 294.742,95.565 293.700,100.593 288.108 C 105.375 282.789,108.000 281.653,108.000 284.903 M323.750 287.392 C 322.788 288.123,322.000 289.058,322.000 289.471 C 322.000 289.884,325.191 294.224,329.091 299.114 L 336.182 308.006 338.841 306.031 C 346.289 300.498,346.311 300.471,344.914 298.234 C 343.613 296.150,343.598 296.150,340.866 298.095 L 338.125 300.047 332.450 293.024 C 329.328 289.161,326.488 286.014,326.137 286.032 C 325.787 286.049,324.712 286.661,323.750 287.392 M119.824 303.125 C 116.702 308.129,114.388 312.848,114.681 313.611 C 115.615 316.044,118.734 315.108,120.885 311.750 C 123.193 308.146,123.501 308.768,121.999 314.002 C 121.116 317.083,121.262 317.693,123.249 319.223 C 124.487 320.176,126.035 320.966,126.689 320.978 C 128.081 321.004,139.000 303.736,139.000 301.511 C 139.000 300.101,138.618 299.859,135.984 299.600 C 135.425 299.545,134.052 300.850,132.933 302.500 L 130.898 305.500 131.549 300.839 C 132.114 296.799,131.929 296.033,130.166 295.089 C 129.047 294.490,127.539 294.006,126.816 294.014 C 126.092 294.022,122.946 298.122,119.824 303.125 M292.831 305.530 C 286.820 308.794,287.190 318.878,293.569 325.642 C 297.970 330.309,303.320 330.041,308.250 324.906 C 310.446 322.620,310.446 322.626,307.822 316.820 C 305.523 311.733,304.647 311.292,300.547 313.161 C 297.310 314.635,297.315 316.321,300.561 318.448 C 302.010 319.398,302.981 320.859,302.797 321.813 C 302.215 324.839,299.710 323.593,297.331 319.093 C 294.642 314.009,294.240 309.063,296.500 308.875 C 299.727 308.606,300.102 308.453,300.970 307.048 C 301.464 306.249,301.646 305.237,301.375 304.798 C 300.592 303.531,295.747 303.946,292.831 305.530 M149.303 308.175 C 146.063 309.773,144.649 314.595,146.458 317.879 C 150.389 325.014,150.388 325.012,149.145 326.255 C 148.211 327.189,147.562 327.181,146.222 326.221 C 143.145 324.016,141.886 323.714,140.705 324.895 C 138.099 327.501,146.004 333.718,150.492 332.591 C 156.883 330.987,158.852 323.899,154.533 318.045 C 153.176 316.206,152.303 314.319,152.592 313.851 C 153.402 312.541,155.623 312.841,156.951 314.441 C 158.485 316.290,161.000 315.343,161.000 312.916 C 161.000 309.318,153.307 306.200,149.303 308.175 M271.024 315.250 C 271.037 315.938,271.439 318.184,271.917 320.243 C 272.963 324.748,271.878 324.371,269.525 319.411 C 267.958 316.110,267.529 315.844,264.684 316.413 C 262.967 316.757,261.262 317.367,260.895 317.769 C 260.528 318.171,261.634 323.337,263.353 329.250 C 266.137 338.825,266.725 340.000,268.739 340.000 C 270.692 340.000,271.249 339.330,271.234 337.000 C 271.232 336.725,270.923 335.488,270.548 334.250 C 269.556 330.981,271.211 331.506,273.264 335.111 C 274.774 337.764,275.421 338.113,277.764 337.534 C 282.107 336.462,282.352 335.577,280.166 328.839 C 279.035 325.353,277.617 320.587,277.016 318.250 C 276.102 314.697,275.519 314.000,273.461 314.000 C 272.108 314.000,271.011 314.563,271.024 315.250 M170.017 325.432 C 167.817 334.317,167.777 335.011,169.338 337.393 C 170.317 338.887,172.626 340.361,174.981 340.995 C 180.298 342.427,183.569 340.365,185.061 334.641 C 185.655 332.363,186.603 328.905,187.167 326.956 C 188.739 321.528,187.976 318.555,184.920 318.200 C 182.551 317.925,182.242 318.339,181.137 323.280 C 178.870 333.407,177.916 336.000,176.453 336.000 C 174.592 336.000,174.668 334.205,176.915 325.000 C 177.922 320.875,178.551 317.163,178.314 316.750 C 178.076 316.337,176.638 316.000,175.117 316.000 C 172.458 316.000,172.263 316.360,170.017 325.432 M245.000 323.816 C 245.000 327.218,246.172 335.474,247.546 341.750 C 248.082 344.199,251.709 344.922,252.544 342.746 C 253.081 341.347,250.437 322.515,249.487 320.980 C 249.154 320.441,248.009 320.000,246.941 320.000 C 245.359 320.000,245.000 320.705,245.000 323.816 M199.643 325.750 C 199.306 328.363,198.738 333.703,198.383 337.618 L 197.737 344.737 203.351 345.438 C 209.556 346.213,211.000 345.766,211.000 343.066 C 211.000 341.836,210.002 341.050,207.906 340.631 L 204.812 340.012 205.525 330.506 L 206.238 321.000 203.248 321.000 C 200.434 321.000,200.222 321.279,199.643 325.750 M219.380 323.452 C 218.609 325.462,219.754 327.000,222.021 327.000 C 223.735 327.000,223.954 327.924,224.212 336.250 L 224.500 345.500 227.750 345.813 L 231.000 346.127 231.000 336.680 C 231.000 328.074,231.178 327.187,233.000 326.710 C 234.197 326.397,235.000 325.346,235.000 324.094 C 235.000 322.154,234.446 322.000,227.469 322.000 C 221.807 322.000,219.799 322.360,219.380 323.452 " stroke="none" fill="black" fill-rule="evenodd"/></svg>